<mxfile host="app.diagrams.net" modified="2023-05-21T20:25:27.827Z" agent="Mozilla/5.0 (Windows NT 6.1; Win64; x64) AppleWebKit/537.36 (KHTML, like Gecko) Chrome/102.0.0.0 Safari/537.36" etag="1L3861xR2ogf8KjPkT1m" version="21.3.2" type="github">
  <diagram name="第 1 页" id="EBOkK068V1HEIV5xA9xP">
    <mxGraphModel dx="1332" dy="508" grid="1" gridSize="10" guides="1" tooltips="1" connect="1" arrows="1" fold="1" page="1" pageScale="1" pageWidth="827" pageHeight="1169" math="0" shadow="0">
      <root>
        <mxCell id="0" />
        <mxCell id="1" parent="0" />
        <mxCell id="T0f1cryZXVCP-ggSnqZf-8" value="" style="rounded=0;orthogonalLoop=1;jettySize=auto;html=1;endArrow=none;endFill=0;" edge="1" parent="1" source="T0f1cryZXVCP-ggSnqZf-1" target="T0f1cryZXVCP-ggSnqZf-7">
          <mxGeometry relative="1" as="geometry" />
        </mxCell>
        <mxCell id="T0f1cryZXVCP-ggSnqZf-1" value="郁垒" style="text;html=1;align=center;verticalAlign=middle;resizable=0;points=[];autosize=1;strokeColor=none;fillColor=none;" vertex="1" parent="1">
          <mxGeometry x="65" y="138" width="50" height="30" as="geometry" />
        </mxCell>
        <mxCell id="T0f1cryZXVCP-ggSnqZf-2" value="辉夜姬&lt;br&gt;雾切家族" style="text;html=1;align=center;verticalAlign=middle;resizable=0;points=[];autosize=1;strokeColor=none;fillColor=none;" vertex="1" parent="1">
          <mxGeometry x="255" y="133" width="70" height="40" as="geometry" />
        </mxCell>
        <mxCell id="T0f1cryZXVCP-ggSnqZf-3" value="天权&lt;br&gt;天师道掌门" style="text;html=1;align=center;verticalAlign=middle;resizable=0;points=[];autosize=1;strokeColor=none;fillColor=none;" vertex="1" parent="1">
          <mxGeometry x="470" y="133" width="80" height="40" as="geometry" />
        </mxCell>
        <mxCell id="T0f1cryZXVCP-ggSnqZf-4" value="红龙&lt;br&gt;不列颠秘术学会" style="text;html=1;align=center;verticalAlign=middle;resizable=0;points=[];autosize=1;strokeColor=none;fillColor=none;" vertex="1" parent="1">
          <mxGeometry x="655" y="133" width="110" height="40" as="geometry" />
        </mxCell>
        <mxCell id="T0f1cryZXVCP-ggSnqZf-5" value="玄冥&lt;br&gt;光明教廷" style="text;html=1;align=center;verticalAlign=middle;resizable=0;points=[];autosize=1;strokeColor=none;fillColor=none;" vertex="1" parent="1">
          <mxGeometry x="915" y="133" width="70" height="40" as="geometry" />
        </mxCell>
        <mxCell id="T0f1cryZXVCP-ggSnqZf-6" value="玲珑" style="text;html=1;align=center;verticalAlign=middle;resizable=0;points=[];autosize=1;strokeColor=none;fillColor=none;" vertex="1" parent="1">
          <mxGeometry x="1175" y="138" width="50" height="30" as="geometry" />
        </mxCell>
        <mxCell id="T0f1cryZXVCP-ggSnqZf-7" value="郁垒" style="text;html=1;align=center;verticalAlign=middle;resizable=0;points=[];autosize=1;strokeColor=none;fillColor=none;" vertex="1" parent="1">
          <mxGeometry x="65" y="248" width="50" height="30" as="geometry" />
        </mxCell>
      </root>
    </mxGraphModel>
  </diagram>
</mxfile>
